<svg xmlns="http://www.w3.org/2000/svg" height="24" viewBox="0 -960 960 960" width="24" fill="#0A84FF"><path d="M480-80q-83 0-156-31.5T197-197q-54-54-85.5-127T80-480q0-83 31.5-156T197-763q54-54 127-85.5T480-880q83 0 156 31.5T763-763q54 54 85.5 127T880-480q0 83-31.5 156T763-197q-54 54-127 85.5T480-80Zm0-80q134 0 227-93t93-227q0-134-93-227t-227-93q-134 0-227 93t-93 227q0 134 93 227t227 93Zm-65-181 229-84-84-229-229 84 84 229Zm75-115q-10 0-17.5-7.5T465-480q0-10 7.5-17.5T490-505q10 0 17.5 7.5T515-480q0 10-7.5 17.5T490-456Z"/></svg>
